<?xml version="1.0" encoding="UTF-8"?>
<svg version="1.1" xmlns="http://www.w3.org/2000/svg" width="24" height="24">
<path d="M0 0 C4.62 0 9.24 0 14 0 C14 4.62 14 9.24 14 14 C9.38 14 4.76 14 0 14 C0 9.38 0 4.76 0 0 Z M6 6 C6 6.66 6 7.32 6 8 C6.66 8 7.32 8 8 8 C8 7.34 8 6.68 8 6 C7.34 6 6.68 6 6 6 Z " fill="#CBCADB" transform="translate(5,5)"/>
<path d="M0 0 C1.98 0 3.96 0 6 0 C4.95125002 2.62187494 4.35068687 3.79371361 1.875 5.25 C1.25625 5.4975 0.6375 5.745 0 6 C0 4.02 0 2.04 0 0 Z " fill="#D8D8E0" transform="translate(5,5)"/>
<path d="M0 0 C1.32 0 2.64 0 4 0 C3.60196439 2.88575819 3.20990931 3.82189513 0.9375 5.75 C0.298125 6.1625 -0.34125 6.575 -1 7 C-1.04254356 5.00045254 -1.04080783 2.99958364 -1 1 C-0.67 0.67 -0.34 0.34 0 0 Z " fill="#DBDAE2" transform="translate(6,12)"/>
<path d="M0 0 C1.98 0 3.96 0 6 0 C4.1875 2.5 4.1875 2.5 2 5 C1.01 5 0.02 5 -1 5 C-0.67 3.35 -0.34 1.7 0 0 Z " fill="#DBDAE2" transform="translate(13,5)"/>
<path d="M0 0 C0.33 0 0.66 0 1 0 C1 1.98 1 3.96 1 6 C-0.98 6 -2.96 6 -5 6 C-3.35830472 3.97945196 -1.69088222 1.97956942 0 0 Z " fill="#C6C4DA" transform="translate(18,13)"/>
</svg>
